<?xml version="1.0" encoding="UTF-8"?>
<svg version="1.1" xmlns="http://www.w3.org/2000/svg" width="500" height="600">
<path d="M0 0 C4.28587827 2.81523376 7.52096134 6.26639753 11 10 C14.56169753 13.31333828 16.63509075 14.46000893 21.5 14.5625 C25.93319353 14.66834872 28.44058854 15.28491405 32 18 C34.08741377 20.28698285 35.95363284 22.71314679 37.8125 25.1875 C38.31458984 25.84169922 38.81667969 26.49589844 39.33398438 27.16992188 C40.56353515 28.77419289 41.78281638 30.38632574 43 32 C43.60328125 31.72285156 44.2065625 31.44570312 44.828125 31.16015625 C45.62734375 30.79792969 46.4265625 30.43570313 47.25 30.0625 C48.43335938 29.52302734 48.43335938 29.52302734 49.640625 28.97265625 C55.816917 26.42646965 62.8088034 25.81070319 69.28515625 27.6484375 C75.55880424 30.47701867 79.69012059 34.99397446 82.41821289 41.25463867 C83.82018289 45.08473685 85.11714126 48.93355095 86.375 52.8125 C86.82800055 54.16128724 87.28241707 55.50959979 87.73828125 56.85742188 C91 66.59741353 91 66.59741353 91 69 C99.72108069 64.00234085 110.30108468 57.81104751 113.421875 47.77734375 C114 46 114 46 116 44 C119.89015353 43.39635549 122.49201844 43.00849415 125.84765625 45.21484375 C127.14231726 46.38306229 128.41259098 47.57859619 129.6640625 48.79296875 C132.4891084 51.46211747 135.48330707 53.82105471 138.5625 56.1875 C139.09254639 56.60306152 139.62259277 57.01862305 140.16870117 57.44677734 C143.94781248 60.3580841 147.82966559 62.71236385 152 65 C151.835 64.236875 151.67 63.47375 151.5 62.6875 C150.70522841 56.82605952 149.93424347 50.72360001 152.125 45.125 C155.93657872 40.80521078 158.62182291 37.79847615 164.49609375 37.30078125 C166.14308174 37.27840012 167.79062621 37.2828846 169.4375 37.3125 C170.25798828 37.28478516 171.07847656 37.25707031 171.92382812 37.22851562 C177.62173844 37.2512527 180.59337742 38.58385779 184.70727539 42.51635742 C188.2530287 46.58577061 187.17015665 51.90184486 187 57 C186.74307496 60.34445531 186.39081565 63.66905444 186 67 C192.00218406 71.30278345 197.89280153 73.45482536 205 75.3125 C206.44826172 75.70791992 206.44826172 75.70791992 207.92578125 76.11132812 C210.28096965 76.75259229 212.6386694 77.38181543 215 78 C215.309375 77.360625 215.61875 76.72125 215.9375 76.0625 C217 74 217 74 218 73 C225.52238806 72.76119403 225.52238806 72.76119403 228 74 C228.94715338 66.41376748 228.94715338 66.41376748 228.5625 58.8125 C227.97834491 54.50532981 227.81303844 50.2167104 227.75 45.875 C227.72881104 45.20573486 227.70762207 44.53646973 227.68579102 43.84692383 C227.63554871 36.69929467 230.08194271 31.19908913 235 26 C242.6130325 20.29022563 249.65535776 20.26667606 259 21 C265.20462394 22.61944587 269.54027682 26.70023296 273 32 C276.29978471 38.66737321 276.12819375 46.91828018 274.171875 53.99609375 C273.21392242 56.40169854 272.18159151 58.69719027 271 61 C270.43925781 62.12535156 270.43925781 62.12535156 269.8671875 63.2734375 C269.58101563 63.84320313 269.29484375 64.41296875 269 65 C281.46546069 63.2192199 293.74640078 56.40414773 303 48 C304.0828125 47.05447266 304.0828125 47.05447266 305.1875 46.08984375 C314.72388217 37.23226656 321.43768983 25.88876099 326.94140625 14.1953125 C328 12 328 12 329 11 C334.73611111 10.72685185 334.73611111 10.72685185 337 11 C339.3247792 13.3247792 339.60272399 14.62620871 340.40234375 17.77734375 C340.77625244 19.24409546 340.77625244 19.24409546 341.15771484 20.74047852 C342.47761847 26.15191808 343.77029072 31.56728018 345 37 C345.28206299 38.23411621 345.28206299 38.23411621 345.56982422 39.49316406 C348.98926715 55.11807113 348.29749625 71.10149526 348 87 C348.95551758 86.96156982 349.91103516 86.92313965 350.89550781 86.88354492 C352.15202148 86.85365479 353.40853516 86.82376465 354.703125 86.79296875 C355.94739258 86.75453857 357.19166016 86.7161084 358.47363281 86.67651367 C363.18378337 87.1085927 365.34529174 88.85587861 368.546875 92.17578125 C371.74091511 96.18550365 372.68549696 98.72609749 372.5703125 103.76953125 C371.84224272 106.61698224 370.90585486 107.4161405 368.5 109.0625 C360.41201958 113.15589323 351.53190049 110.45666594 343 109 C342.90847656 109.83144531 342.81695312 110.66289062 342.72265625 111.51953125 C341.86613613 115.64471734 340.34434822 118.9559682 338.4375 122.6875 C338.08179932 123.38866943 337.72609863 124.08983887 337.35961914 124.81225586 C330.60272118 137.8012586 322.20575358 147.57160771 309.5625 154.9375 C308.73556641 155.43056641 307.90863281 155.92363281 307.05664062 156.43164062 C305.04306199 157.63047646 303.02441953 158.81959634 301 160 C302.81424717 161.81424717 305.31150492 161.10218232 307.72827148 161.13769531 C320.40609213 161.40819792 320.40609213 161.40819792 325.68359375 166.40234375 C329.09401548 170.54140158 329.24076557 174.34008177 329.36328125 179.5234375 C328.403692 186.06515346 325.22479405 190.3379354 320.6875 194.9375 C319.70181204 195.97408211 318.71872775 197.01314638 317.73828125 198.0546875 C317.26729004 198.55452148 316.79629883 199.05435547 316.31103516 199.56933594 C310.88901141 205.48610673 307.5117262 210.32915704 307.671875 218.5234375 C308.27427907 223.07015393 309.98502098 226.55717474 313 230 C316.18128049 232.11228802 319.47001454 233.57078637 323 235 C323.65613281 235.36222656 324.31226563 235.72445312 324.98828125 236.09765625 C328.14911017 237.51542611 331.33644398 237.45320142 334.7578125 237.65625 C337 238 337 238 339 240 C342.27484719 240.2069222 342.27484719 240.2069222 346.125 240.0625 C379.09400701 239.62520561 379.09400701 239.62520561 387.6875 246.5 C392.52730658 251.73222333 392.61147238 255.52714882 392.50390625 262.46875 C391.84447932 267.08985036 390.41608887 269.36751297 387.04296875 272.51171875 C380.24933391 277.46081029 373.22432832 277.80268343 365 277 C358.12675157 275.63728117 351.41045536 273.57864818 344.6875 271.625 C342.87475448 271.11054811 341.06160518 270.59751677 339.24804688 270.0859375 C335.92151125 269.14491233 332.59730469 268.19656704 329.27612305 267.23681641 C328.55308487 267.02822998 327.83004669 266.81964355 327.08509827 266.60473633 C325.71670541 266.20786445 324.34934075 265.80742648 322.98313904 265.40307617 C319.45780459 264.36869368 316.3717495 263.72708087 312.6875 263.75 C311.42486328 263.74226562 311.42486328 263.74226562 310.13671875 263.734375 C307.7859494 263.80440171 307.7859494 263.80440171 306 266 C311.42987496 278.39289107 318.60555728 288.61163895 331.375 294.00268555 C333.84204596 294.91777722 336.31920241 295.78416896 338.8125 296.625 C340.48838822 297.1925777 342.16170772 297.76781162 343.83203125 298.3515625 C344.92608276 298.72015381 344.92608276 298.72015381 346.04223633 299.09619141 C348.25881305 300.11948197 349.50216398 301.07317352 351 303 C351.3125 306.5625 351.3125 306.5625 351 310 C348.31930405 312.68069595 346.39859818 312.59450623 342.6640625 313.1484375 C341.37113281 313.34953125 340.07820313 313.550625 338.74609375 313.7578125 C336.70211903 314.0656956 334.65768958 314.37017708 332.61279297 314.671875 C319.76208931 316.5873513 308.32444747 320.15345199 296.5 325.5 C295.63375 325.87769531 294.7675 326.25539063 293.875 326.64453125 C289.55319766 328.58534064 286.06830062 330.2498548 283 334 C287.38227163 346.26606423 298.36196619 351.8498832 309.44726562 357.17578125 C313.01160593 358.86288448 316.58208467 360.53674757 320.15307617 362.2097168 C325.73251955 364.84860846 331.18052114 367.61769416 336.5 370.75 C337.09224365 371.09023193 337.6844873 371.43046387 338.29467773 371.78100586 C343.26717552 374.79844254 347.13006895 378.39020686 349 384 C349.14648082 386.26763574 349.2209626 388.54032366 349.25 390.8125 C349.27578125 392.01519531 349.3015625 393.21789062 349.328125 394.45703125 C348.90679725 399.00636777 347.60050615 402.28546288 344.46484375 405.64453125 C340.42381232 408.73473175 338.42707958 410.13467257 333.375 410.0625 C332.55773437 410.05347656 331.74046875 410.04445313 330.8984375 410.03515625 C329.95871094 410.01775391 329.95871094 410.01775391 329 410 C329.13631836 411.47255249 329.13631836 411.47255249 329.27539062 412.97485352 C329.61769813 416.69251156 329.95093731 420.41094063 330.28173828 424.12963867 C330.42485618 425.72490697 330.57028317 427.31997016 330.71826172 428.91479492 C332.77665966 451.14409239 332.77665966 451.14409239 332 460 C330 462 330 462 326.44824219 462.30981445 C321.55796011 462.17863559 317.37944632 460.73324078 312.828125 459.04296875 C311.98328552 458.73933914 311.13844604 458.43570953 310.26800537 458.12287903 C308.49434327 457.48242412 306.72289416 456.83581028 304.95361328 456.18334961 C302.2490641 455.18715527 299.53752646 454.2122863 296.82421875 453.24023438 C295.09590408 452.6132184 293.36802353 451.98500426 291.640625 451.35546875 C290.83328918 451.0647197 290.02595337 450.77397064 289.19415283 450.47441101 C281.63818539 447.67039067 281.63818539 447.67039067 279 445 C279 444.01 279 443.02 279 442 C278.30132812 442.14695312 277.60265625 442.29390625 276.8828125 442.4453125 C272.28266455 441.73472054 270.57834613 438.45343652 267.875 434.875 C267.30587891 434.14796875 266.73675781 433.4209375 266.15039062 432.671875 C264.42040563 430.45780279 262.71008739 428.22945473 261 426 C259.61133692 424.22225186 258.21657373 422.4494654 256.82055664 420.67749023 C255.93998193 419.55890476 255.06156171 418.43861987 254.18530273 417.31665039 C249.94701769 411.89483256 245.60171744 406.56162035 241.23828125 401.24023438 C240.71492188 400.60021484 240.1915625 399.96019531 239.65234375 399.30078125 C239.18820068 398.73528564 238.72405762 398.16979004 238.24584961 397.5871582 C237.08928002 396.11373886 236.03902584 394.55853877 235 393 C226.29687809 394.2079066 218.4500172 401.35779154 213 408 C211.25641456 410.55544241 210.95871943 411.63644077 211.3125 414.75219727 C212.01279509 418.06044501 213.00960135 420.9891281 214.25 424.1328125 C214.6934375 425.26847656 215.136875 426.40414063 215.59375 427.57421875 C216.0578125 428.74597656 216.521875 429.91773438 217 431.125 C217.91873727 433.4601239 218.83549104 435.79602942 219.75 438.1328125 C220.15734375 439.16293457 220.5646875 440.19305664 220.984375 441.25439453 C223.79274375 448.8464414 224.73108489 457.96080192 221.5 465.5 C220.675 466.325 219.85 467.15 219 468 C218.24783203 468.83144531 218.24783203 468.83144531 217.48046875 469.6796875 C213.17997589 473.74594872 209.36455897 474.50491395 203.5 474.75 C197.62999095 474.50468619 193.84940887 473.72480497 189.51171875 469.70703125 C183.68551493 463.12808791 181.87010372 456.64831572 181.47265625 447.95703125 C181.40186011 446.62173591 181.33089096 445.28644973 181.25976562 443.95117188 C181.15956582 441.88939636 181.06317212 439.82752852 180.97094727 437.76538086 C180.17459058 420.14831671 180.17459058 420.14831671 172 405 C171.48050781 405.40992188 170.96101562 405.81984375 170.42578125 406.2421875 C169.72839844 406.78101563 169.03101563 407.31984375 168.3125 407.875 C167.62800781 408.40867187 166.94351563 408.94234375 166.23828125 409.4921875 C159.9216312 413.74738282 153.41340251 413.87955623 146 413 C141.53698129 411.25234542 138.29366771 408.26417958 134.75 405.125 C132.28215694 402.75453532 132.28215694 402.75453532 129.75 403.0625 C127.81843591 403.98863775 127.81843591 403.98863775 126 406 C121.58557381 406.9271936 117.55040474 407.00987248 113.703125 404.50390625 C112.35817672 403.28789098 111.04953173 402.02994132 109.7890625 400.7265625 C107.96147618 398.96282199 106.31456846 398.00943735 104 397 C103.67 397.33 103.34 397.66 103 398 C97.20411664 398.46740995 97.20411664 398.46740995 95 398 C91.46224637 394.69693764 90.57387399 389.95329508 89.3125 385.4375 C88.97508789 384.28604492 88.97508789 384.28604492 88.63085938 383.11132812 C87.73681855 379.99441376 87 377.25836586 87 374 C82.05 374 77.1 374 72 374 C71.79246094 375.134375 71.58492187 376.26875 71.37109375 377.4375 C68.16536721 393.57883402 68.16536721 393.57883402 61 399 C55.9230677 402.26841135 49.79701451 401.46260465 44 401 C39.19672184 399.37031634 36.4104815 396.71140634 33 393 C27.555 396.96 27.555 396.96 22 401 C25.69841537 404.07047587 25.69841537 404.07047587 29.375 405.25 C34.26497513 407.22074429 37.67037669 411.34075337 40 416 C40.6895554 423.44945919 40.65390266 428.998915 36 435 C30.32931568 440.67068432 25.6117526 441.30002253 17.77001953 441.31689453 C10.41487345 441.17316309 6.59019721 439.19603677 1.125 434.5625 C-1.30869293 431.41817685 -1.59725007 428.15414023 -2.1328125 424.27734375 C-2.2992627 423.10292725 -2.46571289 421.92851074 -2.63720703 420.71850586 C-2.81678955 419.37284546 -2.81678955 419.37284546 -3 418 C-3.67764404 418.4218457 -4.35528809 418.84369141 -5.0534668 419.27832031 C-18.35201312 427.54380244 -31.68230734 435.6951653 -45.33984375 443.359375 C-48.30577189 445.02441494 -51.23187979 446.73349125 -54.12890625 448.515625 C-54.75829102 448.89654297 -55.38767578 449.27746094 -56.03613281 449.66992188 C-57.66273134 450.6589367 -59.27918496 451.66458682 -60.89453125 452.671875 C-64.9641494 454.41234063 -67.59817889 454.38636674 -72 454 C-74 452 -74 452 -74.6875 448.5625 C-74.50416162 442.53390267 -70.20811801 438.94142889 -66.40332031 434.64697266 C-63.81968956 431.61475744 -61.48924684 428.39158606 -59.125 425.1875 C-54.47870261 418.94004417 -49.72973312 412.78776042 -44.90234375 406.6796875 C-41.64185085 402.55370649 -38.41404501 398.40255096 -35.1875 394.25 C-34.60000977 393.49436768 -34.01251953 392.73873535 -33.40722656 391.96020508 C-30.40807811 388.10188305 -27.41164441 384.24147602 -24.41796875 380.37890625 C-18.44404995 372.67634319 -12.43463516 365.00708886 -6.33203125 357.40600586 C-2.08264689 352.11202852 2.13235309 346.79244118 6.3046875 341.4375 C8.15808505 339.06058223 10.04181964 336.71196153 11.9453125 334.375 C12.88030877 333.20841382 13.81520822 332.04175004 14.75 330.875 C15.41443115 330.07618408 15.41443115 330.07618408 16.09228516 329.26123047 C18.50666654 326.30503053 18.50666654 326.30503053 18.765625 322.6328125 C18.38664062 321.82457031 18.38664062 321.82457031 18 321 C2.38284593 317.82362968 -10.83673733 327.38876924 -23.84619141 334.84838867 C-29.54016638 337.89287745 -35.71447942 337.89793151 -42 337 C-46.6498724 334.57804173 -49.25166595 331.19265739 -52 326.8125 C-53.72959712 320.21841099 -54.25621722 313.81392657 -51.4375 307.5 C-46.41137111 302.34499601 -40.79631078 300.36919351 -33.9375 298.9375 C-33.20305664 298.7739502 -32.46861328 298.61040039 -31.71191406 298.44189453 C-28.13295683 297.6502607 -24.54464648 296.90356998 -20.95703125 296.15234375 C-19.12205078 295.76755859 -19.12205078 295.76755859 -17.25 295.375 C-16.16203125 295.15585937 -15.0740625 294.93671875 -13.953125 294.7109375 C-11.13324366 294.03207718 -8.61600843 293.2515436 -6 292 C-4.58857376 289.17714751 -4.7599411 287.13600752 -5 284 C-8.77719354 275.46184227 -15.11565729 268.40094205 -23.82421875 264.84765625 C-28.5090696 263.59721021 -33.12768411 263.5473551 -37.953125 263.34375 C-41 263 -41 263 -43 261 C-43.63839286 255.25446429 -43.63839286 255.25446429 -43 253 C-38.0138342 248.91569787 -30.89377267 247.58113014 -24.8359375 245.69335938 C-19.46023808 243.96929578 -14.68726293 242.18309466 -10 239 C-8.28494037 235.22686881 -7.69981233 233.15071939 -8.75 229.125 C-9.82143729 226.86253506 -9.82143729 226.86253506 -12 226 C-13.41793175 225.8892418 -14.84061956 225.83628905 -16.26269531 225.81396484 C-17.14411194 225.79659271 -18.02552856 225.77922058 -18.93365479 225.76132202 C-20.36641754 225.73638168 -20.36641754 225.73638168 -21.828125 225.7109375 C-23.84510132 225.65675063 -25.86202832 225.6007019 -27.87890625 225.54296875 C-31.06313871 225.45414981 -34.24601528 225.37505933 -37.43115234 225.32763672 C-40.50267073 225.27848861 -43.5703959 225.18598206 -46.640625 225.0859375 C-47.58770325 225.08145599 -48.53478149 225.07697449 -49.51055908 225.07235718 C-53.22514971 224.92159603 -55.9337453 224.804893 -58.95788574 222.52203369 C-61.85230974 219.34477217 -63.35858954 217.05643996 -63.5 212.6875 C-63 209 -63 209 -61 207 C-58.38914688 206.9314502 -55.85487358 206.96369935 -53.25 207.0625 C-42.07389312 207.26649983 -31.77914773 205.67190568 -22 200 C-23.7706273 190.28918584 -23.7706273 190.28918584 -30 183 C-45.35624115 169.80082283 -45.35624115 169.80082283 -46.5703125 162.6328125 C-46.85031577 156.8744844 -46.95115473 152.24872879 -43.125 147.6875 C-39.18305469 143.90742201 -36.56207302 143.91248172 -31.125 144 C-21.39464812 144.09984503 -11.71131454 143.55720657 -2 143 C-0.98094701 137.84010963 -0.98094701 137.84010963 -1.72265625 132.78515625 C-8.10554095 124.57859021 -17.62269925 119.96374482 -26.453125 114.8203125 C-56.94259976 97.05135545 -56.94259976 97.05135545 -62 84 C-62.76873607 78.09501854 -63.3838733 71.74780606 -60.64453125 66.30859375 C-56.72001373 61.60437076 -53.01598117 59.39054496 -46.87109375 58.79296875 C-35.9917849 58.29594449 -29.11563522 64.64341872 -21 71 C-22.1806421 68.44726032 -23.04143089 66.96100622 -25.125 65 C-28.06968801 60.28849919 -27.43936502 55.41643437 -27 50 C-26.75765625 49.20722656 -26.5153125 48.41445312 -26.265625 47.59765625 C-25.86564794 43.68611585 -27.71923404 40.83264748 -29.4375 37.4375 C-32.61932564 30.62965558 -34.77100376 24.59488149 -33 17 C-27.20435058 4.43555108 -13.27932003 -2.58834204 0 0 Z " fill="#FCFDFD" transform="translate(91,64)"/>
<path d="M0 0 C11.07005291 11.07005291 10.19979521 38.17320171 10.24023438 53.02954102 C10.24990533 55.1665799 10.28101478 57.30263978 10.3125 59.43945312 C10.49103881 82.47013045 3.56369491 105.74331036 -12.5859375 122.703125 C-20.32921207 130.07051245 -29.23407569 134.91329486 -38.71435547 139.67578125 C-39.51244629 140.07925781 -40.31053711 140.48273438 -41.1328125 140.8984375 C-41.85355957 141.25599121 -42.57430664 141.61354492 -43.31689453 141.98193359 C-45.17226546 142.89965162 -45.17226546 142.89965162 -46 145 C-45.0925 145.28875 -44.185 145.5775 -43.25 145.875 C-40 147 -40 147 -38.06787109 148.05322266 C-35.76113975 149.10936246 -34.18820513 149.25301474 -31.6640625 149.2734375 C-30.84679687 149.2940625 -30.02953125 149.3146875 -29.1875 149.3359375 C-27.48707902 149.36185855 -25.78652384 149.38015985 -24.0859375 149.390625 C-18.59339685 149.54607426 -15.33897309 150.30582787 -11 154 C-8.52450111 157.71324834 -8.25106732 160.69463831 -9 165 C-10.24884138 167.55583281 -11.90407899 169.59815388 -13.75 171.75 C-14.1934375 172.30042969 -14.636875 172.85085937 -15.09375 173.41796875 C-17.56142208 176.44449597 -20.08923167 179.39296402 -23 182 C-23.66 182 -24.32 182 -25 182 C-25.268125 182.53625 -25.53625 183.0725 -25.8125 183.625 C-27 186 -27 186 -28.625 188.4375 C-31.16723982 195.02421227 -31.08020148 201.62090818 -28.93359375 208.3359375 C-25.87365676 215.08947691 -22.76816127 218.99739755 -16 222 C-14.84371094 222.56460938 -14.84371094 222.56460938 -13.6640625 223.140625 C-8.8900925 225.39279689 -4.65990918 227.06185835 0.6875 226.9375 C3 227 3 227 5 229 C6.90223599 229.49644452 6.90223599 229.49644452 9 229.6875 C10.051875 229.81705078 10.051875 229.81705078 11.125 229.94921875 C13.0929304 230.14989516 13.0929304 230.14989516 15 229 C26.70584448 228.26385926 39.07950443 228.19498195 50 233 C52.69307181 235.4600299 54.74562206 237.86943137 55.5625 241.5 C54.58690881 245.83596085 52.24189693 248.90863603 48.9375 251.8125 C43.37509353 255.22171687 36.38918084 254.68019386 30.19238281 253.43652344 C27.31074019 252.65154171 24.46990077 251.78401735 21.625 250.875 C19.51564331 250.23561667 17.40626795 249.59629495 15.296875 248.95703125 C12.22097541 248.00512425 9.14741672 247.04640623 6.07617188 246.07958984 C-9.64019338 240.90642286 -9.64019338 240.90642286 -26 241 C-28.23587948 242.17073134 -30.21086407 243.21086407 -32 245 C-32.78983206 253.4750234 -27.72986049 261.21507148 -22.91796875 267.88671875 C-15.00059434 277.20211602 -5.60117328 282.16643027 5.78149414 286.04785156 C10.90493596 287.80987193 10.90493596 287.80987193 12 290 C11.38705078 290.06469482 10.77410156 290.12938965 10.14257812 290.19604492 C-7.42688418 292.10969709 -22.43665125 295.81515797 -38.625 302.9375 C-39.562229 303.34427979 -40.49945801 303.75105957 -41.46508789 304.17016602 C-47.05353422 306.72149018 -51.12069791 309.18277455 -55 314 C-55.96308798 317.27217843 -55.20835051 319.85019931 -54 323 C-47.32841265 333.86796661 -38.03780381 339.16777066 -26.91796875 344.5859375 C-20.86333889 347.54121904 -14.86623834 350.60613044 -8.875 353.6875 C-7.25670288 354.5074646 -7.25670288 354.5074646 -5.60571289 355.34399414 C6.84057665 361.76086497 6.84057665 361.76086497 11 368 C11.57848123 372.85323218 11.64024604 377.4634095 9.75 382 C7.35367691 384.73865496 5.34327181 386.7258629 1.703125 387.46875 C-4.87167594 387.55250543 -8.82967773 386.04382747 -14 382 C-12.4375 383.125 -12.4375 383.125 -11 385 C-11.03041153 392.33931487 -16.56050383 396.64436887 -21.4296875 401.47607422 C-29.98976246 409.78328626 -39.69165262 417.69809029 -51.52734375 420.625 C-55.70864768 419.56811433 -57.60549325 416.21008715 -60.125 412.875 C-60.69412109 412.14796875 -61.26324219 411.4209375 -61.84960938 410.671875 C-63.57959437 408.45780279 -65.28991261 406.22945473 -67 404 C-68.38802142 402.22307331 -69.78213728 400.45110304 -71.17749023 398.67993164 C-72.06452397 397.55316791 -72.94943009 396.4247262 -73.83227539 395.29467773 C-77.35107605 390.79430017 -80.94781745 386.36106256 -84.5625 381.9375 C-89.28850578 376.15145554 -93.87668436 370.28512831 -98.40625 364.34375 C-101.36211063 360.50113119 -104.43107807 356.7524869 -107.5 353 C-111.40905125 348.2202552 -115.25632024 343.41054099 -119 338.5 C-123.26145875 332.91244712 -127.66548886 327.45563574 -132.11108398 322.01391602 C-136.09966705 317.12557329 -140.02028148 312.18930377 -143.90600586 307.21899414 C-147.73486489 302.32490644 -151.61294689 297.47161383 -155.50439453 292.62719727 C-158.03390326 289.47375403 -160.54634901 286.30898844 -163.02734375 283.1171875 C-163.51654297 282.48876953 -164.00574219 281.86035156 -164.50976562 281.21289062 C-165.42943574 280.02901979 -166.34632655 278.842982 -167.25976562 277.65429688 C-169.97169706 274.16514009 -172.82423996 271.056456 -176 268 C-177.23363281 269.14275391 -177.23363281 269.14275391 -178.4921875 270.30859375 C-187.88531974 279.00169581 -197.25900186 287.63210417 -207.21484375 295.68359375 C-210.05531362 298.04600418 -212.78175899 300.49829028 -215.5 303 C-220.82617929 307.89494034 -226.36794653 312.46373948 -232 317 C-233.73032921 318.4152465 -235.4594781 319.83193719 -237.1875 321.25 C-238.095 321.99121094 -239.0025 322.73242188 -239.9375 323.49609375 C-242.19088657 325.33846721 -244.44025272 327.18533027 -246.6875 329.03515625 C-255.24829588 336.06170991 -263.95240674 342.8436239 -272.86230469 349.42138672 C-275.12238959 351.09038043 -277.37768199 352.76572549 -279.6328125 354.44140625 C-281.23410282 355.62797157 -282.83566068 356.81417593 -284.4375 358 C-285.13915283 358.52070068 -285.84080566 359.04140137 -286.5637207 359.57788086 C-300.22122387 369.65103428 -314.19259674 379.27679043 -328.3125 388.6875 C-329.08458801 389.20235962 -329.85667603 389.71721924 -330.65216064 390.24768066 C-349.21890296 402.60710979 -368.10583084 414.31566929 -387.625 425.125 C-388.55038574 425.64094727 -389.47577148 426.15689453 -390.42919922 426.68847656 C-391.2698291 427.14448242 -392.11045898 427.60048828 -392.9765625 428.0703125 C-394.07605225 428.66996826 -394.07605225 428.66996826 -395.19775391 429.28173828 C-395.79249512 429.51876465 -396.38723633 429.75579102 -397 430 C-397.66 429.67 -398.32 429.34 -399 429 C-390.99747234 418.24202326 -382.84338597 407.6140071 -374.59277344 397.04541016 C-372.38227123 394.20672416 -370.19017352 391.35440647 -368 388.5 C-358.95630313 376.72388898 -349.82300821 365.0167187 -340.63671875 353.3515625 C-338.86372825 351.1000418 -337.09587245 348.84463236 -335.33203125 346.5859375 C-329.31115181 338.88339419 -323.18474449 331.27318859 -317.0078125 323.6953125 C-313.30757896 319.15485126 -309.6493385 314.58142063 -306 310 C-300.70953447 303.35829002 -295.36618274 296.76184316 -290.00048828 290.1809082 C-286.34182285 285.68245364 -282.74783038 281.13899365 -279.1875 276.5625 C-275.59551263 271.95264418 -271.87421475 267.51406442 -267.9453125 263.1875 C-265.80743002 260.78345545 -263.77648518 258.31110538 -261.75 255.8125 C-257.73417538 250.86195758 -253.60622094 246.0204385 -249.44238281 241.19482422 C-246.39763514 237.65745844 -243.42376555 234.0763169 -240.5 230.4375 C-238.03888921 227.38373201 -235.51216318 224.44793326 -232.8125 221.60546875 C-232.26400391 221.02676025 -231.71550781 220.44805176 -231.15039062 219.85180664 C-230.07478936 218.72640313 -228.99050178 217.60921838 -227.89648438 216.50170898 C-225.7660617 214.27670169 -224.12290798 212.28504192 -222.8984375 209.4453125 C-223.04961827 205.80534483 -224.69380715 204.41745297 -227.125 201.75 C-228.06343245 200.68931643 -228.99813548 199.62532517 -229.9296875 198.55859375 C-230.43081055 197.98737793 -230.93193359 197.41616211 -231.44824219 196.82763672 C-234.19022114 193.59817567 -236.70616724 190.19860256 -239.25 186.8125 C-243.76388017 180.84320046 -248.40432727 175.00567963 -253.1875 169.25 C-258.12019305 163.31431029 -262.9093913 157.30298146 -267.5859375 151.1640625 C-274.62539955 141.93758311 -281.88265728 132.89280152 -289.22265625 123.90454102 C-293.08004025 119.16739267 -296.83968648 114.36560988 -300.54541016 109.50927734 C-303.60067543 105.506643 -306.7265458 101.56768203 -309.8828125 97.64453125 C-312.37818797 94.52761391 -314.84732707 91.39082249 -317.3125 88.25 C-317.77922119 87.65566162 -318.24594238 87.06132324 -318.72680664 86.44897461 C-321.05179181 83.48689811 -323.37365424 80.522427 -325.69140625 77.5546875 C-331.18453807 70.53012498 -336.7500895 63.57167716 -342.40966797 56.68017578 C-343.95148598 54.79583966 -345.4800395 52.90200724 -347 51 C-347.55896973 50.30156982 -348.11793945 49.60313965 -348.69384766 48.88354492 C-349.23702637 48.18592041 -349.78020508 47.4882959 -350.33984375 46.76953125 C-351.07835571 45.82750854 -351.07835571 45.82750854 -351.83178711 44.86645508 C-353.46784279 42.25252703 -353.84050417 40.11358247 -353.578125 37.06640625 C-349.77192716 23.46182072 -334.60227873 13.87349124 -323.03515625 7.3203125 C-317.49977577 4.57203103 -312.21618498 2.43102695 -306 4 C-302.95634587 6.31149983 -300.8252696 9.12963566 -298.5625 12.1875 C-297.95212891 12.95642578 -297.34175781 13.72535156 -296.71289062 14.51757812 C-293.8146728 18.24020631 -291.6265513 21.54170219 -290 26 C-289.34 26 -288.68 26 -288 26 C-286.31532736 27.9639171 -284.74490234 29.93808704 -283.1875 32 C-282.1927216 33.29267996 -281.19657295 34.58430633 -280.19921875 35.875 C-279.67634277 36.55304688 -279.1534668 37.23109375 -278.61474609 37.9296875 C-275.96287876 41.32972303 -273.23067781 44.66318246 -270.5 48 C-265.99224485 53.52191726 -261.55214145 59.08970566 -257.16625977 64.70874023 C-253.64624854 69.20663846 -250.05143112 73.63985702 -246.4375 78.0625 C-241.71034725 83.8499487 -237.12160224 89.7181909 -232.58984375 95.66015625 C-229.11471951 100.17741068 -225.49267037 104.57540339 -221.88671875 108.98828125 C-218.37663802 113.28936608 -214.91582925 117.62376186 -211.5 122 C-207.55814819 127.04853877 -203.54968093 132.03756407 -199.5 137 C-192.52494186 145.5492684 -185.57989886 154.14078977 -179 163 C-176.03674056 161.64891034 -173.79214835 160.11293352 -171.375 157.9375 C-170.67117187 157.31359375 -169.96734375 156.6896875 -169.2421875 156.046875 C-167.74822753 154.68305092 -166.27393869 153.29736002 -164.8203125 151.890625 C-155.79409016 143.32027248 -143.00888105 133.84004917 -131 130 C-128.44805151 130.31097058 -127.2887494 130.70318342 -125.47949219 132.56298828 C-124.77034668 133.55661377 -124.77034668 133.55661377 -124.046875 134.5703125 C-123.50933594 135.3025 -122.97179687 136.0346875 -122.41796875 136.7890625 C-121.86753906 137.55992187 -121.31710937 138.33078125 -120.75 139.125 C-114.52606 147.82351856 -107.96022023 154.3521241 -98.5 159.4375 C-97.55253906 159.9624707 -97.55253906 159.9624707 -96.5859375 160.49804688 C-95.06209591 161.34077745 -93.53175233 162.17173505 -92 163 C-91.45273283 176.66457717 -100.05245006 191.67288788 -108.9375 201.8125 C-110.6056873 203.5661598 -112.2898508 205.28824453 -114 207 C-114.6796582 207.68658691 -115.35931641 208.37317383 -116.05957031 209.08056641 C-121.01266136 214.08114128 -125.99519356 219.0512143 -131 224 C-129.50292129 227.2801904 -127.61579297 229.96176099 -125.41015625 232.80859375 C-124.35731445 234.17661133 -124.35731445 234.17661133 -123.28320312 235.57226562 C-122.55037109 236.51779297 -121.81753906 237.46332031 -121.0625 238.4375 C-119.61346677 240.30932807 -118.16676949 242.1829673 -116.72265625 244.05859375 C-116.08078369 244.88673584 -115.43891113 245.71487793 -114.77758789 246.56811523 C-113.02225377 248.96955504 -111.48854089 251.42638133 -110 254 C-111.155 254.495 -112.31 254.99 -113.5 255.5 C-118.67507582 258.08292554 -124.62119864 262.31882071 -126.71801758 267.91699219 C-127.22273518 271.64534765 -124.36397088 274.37255426 -122.25 277.25 C-121.22612642 278.68718943 -120.2027015 280.12469858 -119.1796875 281.5625 C-118.65084961 282.29726563 -118.12201172 283.03203125 -117.57714844 283.7890625 C-115.5897792 286.57507114 -113.66631402 289.40155386 -111.74438477 292.23291016 C-107.21955466 298.89793893 -102.528519 305.38365508 -97.58203125 311.7421875 C-96 314 -96 314 -96 316 C-95.01 315.34 -94.02 314.68 -93 314 C-94.46374461 309.76531641 -96.67720167 306.38845775 -99.3125 302.8125 C-99.74256348 302.21953125 -100.17262695 301.6265625 -100.61572266 301.015625 C-101.55919651 299.71538653 -102.50494097 298.41679342 -103.45263672 297.11962891 C-105.69560541 294.04713692 -107.92466828 290.96465451 -110.15307617 287.8815918 C-111.27788547 286.32586874 -112.40428213 284.77129178 -113.5324707 283.21801758 C-114.56349197 281.79530036 -115.58910807 280.36864509 -116.60839844 278.9375 C-117.487024 277.71420659 -118.38399886 276.50370229 -119.30566406 275.3125 C-121.11475557 272.88177551 -122.00319004 271.4312936 -121.98046875 268.359375 C-120.82576857 265.58073392 -119.58779086 264.20891708 -117.3125 262.25 C-116.64863281 261.65703125 -115.98476563 261.0640625 -115.30078125 260.453125 C-112.54077706 258.70996446 -110.21902124 258.34999373 -107 258 C-98.2937854 269.42595703 -89.96867755 281.04698368 -82 293 C-79.75491198 288.18313214 -78.45776285 283.97207789 -77.68359375 278.66796875 C-77.58160172 277.99131668 -77.47960968 277.31466461 -77.37452698 276.61750793 C-77.05324159 274.4753843 -76.74477902 272.33167318 -76.4375 270.1875 C-76.02333703 267.36791953 -75.60415729 264.54910096 -75.18359375 261.73046875 C-75.08203979 261.04561905 -74.98048584 260.36076935 -74.87585449 259.65516663 C-74.22256096 255.30521915 -73.43927573 251.00699916 -72.53833008 246.70288086 C-71.83698819 243.18154023 -71.23295528 239.64512769 -70.6328125 236.10546875 C-70.51210388 235.39364441 -70.39139526 234.68182007 -70.26702881 233.94842529 C-70.01564391 232.46263228 -69.76460379 230.97678089 -69.5138855 229.49087524 C-67.7558 219.07770572 -65.99121836 208.67220143 -63.9375 198.3125 C-61.8905263 187.96019986 -60.31907362 177.53217822 -58.74975586 167.09887695 C-57.72573638 160.33472719 -56.59773925 153.65480386 -55 147 C-56.12921875 147.433125 -56.12921875 147.433125 -57.28125 147.875 C-67.05136707 151.2897982 -77.40647883 153.50568945 -87.40234375 149.70703125 C-93.88108728 146.13677788 -99.31914062 141.7110099 -104 136 C-104.64727051 135.2265625 -104.64727051 135.2265625 -105.30761719 134.4375 C-111.91665481 126.34292365 -115.56627603 119.58671447 -114.59375 108.984375 C-112.18055385 91.09524703 -105.30126023 75.91282729 -90.9375 64.625 C-84.07619169 59.55292175 -77.28182707 57.40455048 -68.9375 56.125 C-44.37419764 51.86948259 -24.54752963 39.24368326 -10 19 C-6.08856279 12.92316675 -2.60645618 6.74612187 0 0 Z " fill="#433A3C" transform="translate(423,81)"/>
<path d="M0 0 C11.07005291 11.07005291 10.19979521 38.17320171 10.24023438 53.02954102 C10.24990533 55.1665799 10.28101478 57.30263978 10.3125 59.43945312 C10.49103881 82.47013045 3.56369491 105.74331036 -12.5859375 122.703125 C-20.32921207 130.07051245 -29.23407569 134.91329486 -38.71435547 139.67578125 C-39.51244629 140.07925781 -40.31053711 140.48273438 -41.1328125 140.8984375 C-41.85355957 141.25599121 -42.57430664 141.61354492 -43.31689453 141.98193359 C-45.17226546 142.89965162 -45.17226546 142.89965162 -46 145 C-45.0925 145.28875 -44.185 145.5775 -43.25 145.875 C-40 147 -40 147 -38.06787109 148.05322266 C-35.76113975 149.10936246 -34.18820513 149.25301474 -31.6640625 149.2734375 C-30.84679687 149.2940625 -30.02953125 149.3146875 -29.1875 149.3359375 C-27.48707902 149.36185855 -25.78652384 149.38015985 -24.0859375 149.390625 C-18.59339685 149.54607426 -15.33897309 150.30582787 -11 154 C-8.52450111 157.71324834 -8.25106732 160.69463831 -9 165 C-10.24884138 167.55583281 -11.90407899 169.59815388 -13.75 171.75 C-14.1934375 172.30042969 -14.636875 172.85085937 -15.09375 173.41796875 C-17.56142208 176.44449597 -20.08923167 179.39296402 -23 182 C-23.66 182 -24.32 182 -25 182 C-25.268125 182.53625 -25.53625 183.0725 -25.8125 183.625 C-27 186 -27 186 -28.625 188.4375 C-31.16723982 195.02421227 -31.08020148 201.62090818 -28.93359375 208.3359375 C-25.87365676 215.08947691 -22.76816127 218.99739755 -16 222 C-14.84371094 222.56460938 -14.84371094 222.56460938 -13.6640625 223.140625 C-8.8900925 225.39279689 -4.65990918 227.06185835 0.6875 226.9375 C3 227 3 227 5 229 C6.90223599 229.49644452 6.90223599 229.49644452 9 229.6875 C9.70125 229.77386719 10.4025 229.86023438 11.125 229.94921875 C13.0929304 230.14989516 13.0929304 230.14989516 15 229 C26.70584448 228.26385926 39.07950443 228.19498195 50 233 C52.69307181 235.4600299 54.74562206 237.86943137 55.5625 241.5 C54.58690881 245.83596085 52.24189693 248.90863603 48.9375 251.8125 C43.37509353 255.22171687 36.38918084 254.68019386 30.19238281 253.43652344 C27.31074019 252.65154171 24.46990077 251.78401735 21.625 250.875 C19.51564331 250.23561667 17.40626795 249.59629495 15.296875 248.95703125 C12.22097541 248.00512425 9.14741672 247.04640623 6.07617188 246.07958984 C-9.64019338 240.90642286 -9.64019338 240.90642286 -26 241 C-28.23587948 242.17073134 -30.21086407 243.21086407 -32 245 C-32.78983206 253.4750234 -27.72986049 261.21507148 -22.91796875 267.88671875 C-15.00059434 277.20211602 -5.60117328 282.16643027 5.78149414 286.04785156 C10.90493596 287.80987193 10.90493596 287.80987193 12 290 C11.08057617 290.09704224 11.08057617 290.09704224 10.14257812 290.19604492 C-7.42688418 292.10969709 -22.43665125 295.81515797 -38.625 302.9375 C-39.562229 303.34427979 -40.49945801 303.75105957 -41.46508789 304.17016602 C-47.05353422 306.72149018 -51.12069791 309.18277455 -55 314 C-55.96308798 317.27217843 -55.20835051 319.85019931 -54 323 C-47.32841265 333.86796661 -38.03780381 339.16777066 -26.91796875 344.5859375 C-20.86333889 347.54121904 -14.86623834 350.60613044 -8.875 353.6875 C-7.25670288 354.5074646 -7.25670288 354.5074646 -5.60571289 355.34399414 C6.84057665 361.76086497 6.84057665 361.76086497 11 368 C11.57848123 372.85323218 11.64024604 377.4634095 9.75 382 C7.39868775 384.687214 5.31918565 386.65433103 1.80859375 387.57421875 C-4.96424922 387.89779774 -8.971266 385.84521225 -14.21484375 381.65625 C-18.93746626 377.15220609 -22.77281195 372.06977216 -26.63818359 366.82910156 C-28.80277287 363.92176867 -31.06079097 361.09000447 -33.3125 358.25 C-38.31271374 351.89763637 -43.27357963 345.51469475 -48.22973633 339.12792969 C-51.12682624 335.39687307 -54.03565643 331.67811671 -57 328 C-57.37511719 328.60328125 -57.75023437 329.2065625 -58.13671875 329.828125 C-63.9700993 338.93819034 -63.9700993 338.93819034 -68 341 C-71.29370982 341.4607458 -73.88122737 341.15871066 -77 340 C-79.92044004 337.77055693 -81.84980153 334.95599277 -84 332 C-84.97999627 330.76707948 -85.96333968 329.53681529 -86.94921875 328.30859375 C-87.98905921 326.97818563 -89.02680994 325.64614164 -90.0625 324.3125 C-90.5766748 323.67103027 -91.09084961 323.02956055 -91.62060547 322.36865234 C-92.94397628 320.60948735 -94.10958995 319.01460829 -95 317 C-94.50113281 315.77410156 -94.50113281 315.77410156 -93.9921875 314.5234375 C-92.70817273 312.12937653 -92.70817273 312.12937653 -93.73120117 310.31225586 C-95.09468731 308.24034684 -96.54852809 306.27726384 -98.0625 304.3125 C-98.60455078 303.57862061 -99.14660156 302.84474121 -99.70507812 302.08862305 C-100.86036366 300.5252491 -102.02287914 298.96719668 -103.19189453 297.4140625 C-105.60277192 294.19521891 -107.95336022 290.93470516 -110.30249023 287.6706543 C-111.40923776 286.13317776 -112.51927397 284.59806162 -113.63305664 283.06567383 C-114.64132677 281.67765942 -115.64419672 280.28569993 -116.640625 278.88916016 C-117.50593836 277.68661081 -118.38965456 276.4969407 -119.296875 275.32568359 C-121.10815916 272.8917705 -122.00321875 271.43517528 -121.98046875 268.359375 C-120.82576857 265.58073392 -119.58779086 264.20891708 -117.3125 262.25 C-116.64863281 261.65703125 -115.98476563 261.0640625 -115.30078125 260.453125 C-112.54077706 258.70996446 -110.21902124 258.34999373 -107 258 C-98.2937854 269.42595703 -89.96867755 281.04698368 -82 293 C-79.75491198 288.18313214 -78.45776285 283.97207789 -77.68359375 278.66796875 C-77.58160172 277.99131668 -77.47960968 277.31466461 -77.37452698 276.61750793 C-77.05324159 274.4753843 -76.74477902 272.33167318 -76.4375 270.1875 C-76.02333703 267.36791953 -75.60415729 264.54910096 -75.18359375 261.73046875 C-75.08203979 261.04561905 -74.98048584 260.36076935 -74.87585449 259.65516663 C-74.22256096 255.30521915 -73.43927573 251.00699916 -72.53833008 246.70288086 C-71.83698819 243.18154023 -71.23295528 239.64512769 -70.6328125 236.10546875 C-70.51210388 235.39364441 -70.39139526 234.68182007 -70.26702881 233.94842529 C-70.01564391 232.46263228 -69.76460379 230.97678089 -69.5138855 229.49087524 C-67.7558 219.07770572 -65.99121836 208.67220143 -63.9375 198.3125 C-61.8905263 187.96019986 -60.31907362 177.53217822 -58.74975586 167.09887695 C-57.72573638 160.33472719 -56.59773925 153.65480386 -55 147 C-55.7528125 147.28875 -56.505625 147.5775 -57.28125 147.875 C-67.05136707 151.2897982 -77.40647883 153.50568945 -87.40234375 149.70703125 C-93.88108728 146.13677788 -99.31914062 141.7110099 -104 136 C-104.43151367 135.484375 -104.86302734 134.96875 -105.30761719 134.4375 C-111.91665481 126.34292365 -115.56627603 119.58671447 -114.59375 108.984375 C-112.18055385 91.09524703 -105.30126023 75.91282729 -90.9375 64.625 C-84.07619169 59.55292175 -77.28182707 57.40455048 -68.9375 56.125 C-44.37419764 51.86948259 -24.54752963 39.24368326 -10 19 C-6.08856279 12.92316675 -2.60645618 6.74612187 0 0 Z " fill="#5BCAE9" transform="translate(423,81)"/>
<path d="M0 0 C6.29362046 3.83889221 11.49890568 9.06772513 16.75 14.1875 C17.2435498 14.66590332 17.73709961 15.14430664 18.24560547 15.63720703 C22.78509006 20.0529835 27.24058061 24.51277175 31.375 29.3125 C41.09291421 40.6261318 41.09291421 40.6261318 53.75 48.1875 C54.90757813 48.12175781 56.06515625 48.05601562 57.2578125 47.98828125 C60.75 48.1875 60.75 48.1875 63.234375 50.5390625 C63.98203125 51.61929688 64.7296875 52.69953125 65.5 53.8125 C66.36069452 55.01654435 67.22271954 56.2196385 68.0859375 57.421875 C68.52389648 58.04642578 68.96185547 58.67097656 69.41308594 59.31445312 C71.55075021 62.30936918 73.83711531 65.18173336 76.125 68.0625 C77.04950025 69.23696257 77.97397915 70.41144195 78.8984375 71.5859375 C82.33415975 75.93342018 85.80061481 80.25618086 89.2668457 84.5793457 C94.93186195 91.65077297 100.51783352 98.78363062 106.10449219 105.91699219 C111.78409336 113.16676388 117.49831169 120.38646175 123.26049805 127.57080078 C127.16030694 132.43781289 131.03235983 137.32599119 134.86035156 142.24975586 C136.94140113 144.9207424 139.04759796 147.53531762 141.25 150.109375 C141.9925 150.98078125 142.735 151.8521875 143.5 152.75 C144.15484375 153.49378906 144.8096875 154.23757813 145.484375 155.00390625 C146.75 157.1875 146.75 157.1875 146.859375 159.51953125 C145.17578884 163.5684374 142.30585575 166.22470563 139.25 169.3125 C137.95839502 170.65511082 136.66933409 172.00017363 135.3828125 173.34765625 C134.44163574 174.33209717 134.44163574 174.33209717 133.48144531 175.33642578 C130.47633091 178.54916935 127.74963576 181.96891772 125.00390625 185.40234375 C122.41953556 188.59585554 119.74869075 191.70469807 117.0625 194.8125 C111.9162875 200.77902721 106.89225013 206.83896283 101.8984375 212.93334961 C98.32907465 217.28499124 94.71839457 221.59594158 91.0625 225.875 C81.88451411 236.64908453 73.35277947 247.95350165 64.75 259.1875 C64.46125 258.59324219 64.1725 257.99898438 63.875 257.38671875 C61.2153799 251.93824518 61.2153799 251.93824518 56.75 248.1875 C45.67050604 247.37111623 36.66415788 247.70895394 26.75 253.1875 C26.09692871 253.54650391 25.44385742 253.90550781 24.77099609 254.27539062 C21.26263781 256.2113687 17.77980033 258.18403488 14.31640625 260.19921875 C8.68039531 263.41020259 3.30376103 265.73091648 -3.25 264.1875 C-6.77065834 261.45002345 -8.8477979 258.39410629 -10.25 254.1875 C-10.92883212 247.17290146 -10.92883212 247.17290146 -8.3125 243.375 C-0.00215238 237.43903741 11.36139984 236.44804677 21.15234375 234.4375 C22.31378906 234.19 23.47523437 233.9425 24.671875 233.6875 C25.71956055 233.4709375 26.76724609 233.254375 27.84667969 233.03125 C31.62750172 231.93248436 34.78684539 230.61461323 37.03125 227.2890625 C38.71070017 222.37849623 38.66015017 217.50229139 36.7578125 212.6640625 C31.70760167 203.61933464 24.35336357 195.17858337 14.35546875 191.79296875 C9.85694039 190.7475836 5.35734447 190.3626842 0.75 190.1875 C2.98385891 187.95364109 4.31433657 187.53091203 7.29296875 186.6015625 C8.20240234 186.31023437 9.11183594 186.01890625 10.04882812 185.71875 C11.95459747 185.12086158 13.86083854 184.52447445 15.76757812 183.9296875 C25.22316306 181.02757512 25.22316306 181.02757512 32.66796875 174.8125 C33.92898554 171.75328238 34.11725291 169.48952193 34.0625 166.1875 C34.05669922 164.6715625 34.05669922 164.6715625 34.05078125 163.125 C33.72910488 159.98343334 33.38445248 157.90059692 31.75 155.1875 C26.89290841 152.70712548 22.05825847 152.9931308 16.75 153.125 C9.07786746 153.2027581 1.41928662 153.17812259 -6.25 152.9375 C-7.65572266 152.91610962 -7.65572266 152.91610962 -9.08984375 152.89428711 C-15.61078437 152.65549716 -15.61078437 152.65549716 -18.875 150.265625 C-20.25 148.1875 -20.25 148.1875 -20.25 146.1875 C-19.37601563 146.18919189 -19.37601563 146.18919189 -18.484375 146.19091797 C-8.3584213 146.1451442 1.38391845 146.03780882 10.9375 142.375 C11.58912109 142.12669434 12.24074219 141.87838867 12.91210938 141.62255859 C16.51993783 140.10056652 18.83965663 138.64237631 20.75 135.1875 C21.80819897 127.78010724 18.81990641 120.43035338 14.875 114.25 C12.76819778 112.07679478 12.76819778 112.07679478 10 110.375 C4.07445792 106.38665437 -2.0248695 101.15957556 -4.25 94.1875 C-4.18474852 90.40291417 -3.91031817 88.11117727 -1.69702148 85.01513672 C1.68511289 82.48908086 4.77665155 82.59346552 8.83984375 82.5703125 C10.44467619 82.51999896 12.04949356 82.46920281 13.65429688 82.41796875 C16.17338255 82.36048791 18.69220713 82.31242989 21.21166992 82.27490234 C23.65158074 82.23149011 26.08848088 82.15264427 28.52734375 82.0703125 C29.27644516 82.07008087 30.02554657 82.06984924 30.79734802 82.0696106 C33.70448711 81.95998532 36.05202678 81.76244472 38.34629822 79.87257385 C41.64245746 76.03316205 42.61084199 73.45779564 42.28125 68.546875 C40.37328793 60.07327877 33.71117714 54.88474373 26.72216797 50.40820312 C20.55800394 46.59280078 14.28139842 42.96205184 8.02734375 39.296875 C-16.0995083 25.12016363 -16.0995083 25.12016363 -20.25 13.1875 C-20.7926923 8.84596157 -20.55420953 6.76332518 -18.5 2.875 C-13.47300523 -3.12946598 -6.82846008 -3.42042646 0 0 Z " fill="#5BCAE9" transform="translate(54.25,130.8125)"/>
<path d="M0 0 C1.11246094 0.60714844 2.22492188 1.21429688 3.37109375 1.83984375 C4.7601003 2.57338536 6.15090175 3.30353306 7.54296875 4.03125 C8.75049805 4.66764404 8.75049805 4.66764404 9.98242188 5.31689453 C15.97393129 8.41305982 22.0520401 11.33698596 28.12109375 14.27734375 C29.1304599 14.76741913 29.1304599 14.76741913 30.16021729 15.26739502 C40.89656084 20.47284606 51.72207326 25.35685851 62.80859375 29.77734375 C62.59203125 30.53015625 62.37546875 31.28296875 62.15234375 32.05859375 C59.6412451 41.63797008 57.11009506 52.68787447 61.28515625 62.109375 C63.27936724 65.20397731 65.4264302 67.97221649 67.80859375 70.77734375 C68.85466797 72.12119141 68.85466797 72.12119141 69.921875 73.4921875 C75.99586703 80.87647397 82.94376433 86.97167021 92.67578125 88.30859375 C101.30858208 88.69820006 109.52046947 87.16159868 117.80859375 84.77734375 C117.97232721 88.62508012 117.85540701 91.97767968 116.94140625 95.72265625 C115.56695643 101.67840331 114.57528715 107.68939772 113.55859375 113.71484375 C113.11790924 116.30351145 112.67667715 118.89207772 112.234375 121.48046875 C112.11973404 122.15220627 112.00509308 122.82394379 111.88697815 123.51603699 C111.04147266 128.45581506 110.1711904 133.39085884 109.2890625 138.32421875 C106.7188074 152.71274328 104.19691633 167.09153257 102.10131836 181.55932617 C101.49890164 185.65270539 100.89387273 189.67712065 99.8203125 193.67578125 C98.03597894 200.38549367 97.34239817 207.35602277 96.39648438 214.22265625 C95.48728425 220.46752082 94.30516709 225.97334418 91.80859375 231.77734375 C87.7498451 227.98091997 84.69422914 223.95652996 81.62109375 219.33984375 C80.66388966 217.92371522 79.7055299 216.50836725 78.74609375 215.09375 C78.26269531 214.37977051 77.77929688 213.66579102 77.28125 212.93017578 C74.94263917 209.51143071 72.53623735 206.14227766 70.12109375 202.77734375 C69.68708252 202.17220947 69.25307129 201.5670752 68.8059082 200.94360352 C67.80802209 199.55397431 66.80850956 198.1655132 65.80859375 196.77734375 C61.39797086 197.26460051 58.7513276 198.07023896 55.37109375 200.96484375 C54.67113281 201.53589844 53.97117187 202.10695313 53.25 202.6953125 C51.55298731 204.73657055 51.55298731 204.73657055 51.75390625 207.55859375 C53.137018 211.7796459 55.36886237 214.6486966 58.12109375 218.08984375 C59.21313513 219.49829882 60.30290574 220.90851688 61.390625 222.3203125 C62.23488037 223.41158447 62.23488037 223.41158447 63.09619141 224.52490234 C65.92848514 228.25041446 68.62088786 232.07182716 71.30859375 235.90234375 C71.80012939 236.60012939 72.29166504 237.29791504 72.7980957 238.0168457 C75.52464619 241.90111124 78.19327278 245.81735303 80.80859375 249.77734375 C80.14859375 251.09734375 79.48859375 252.41734375 78.80859375 253.77734375 C78.14859375 253.77734375 77.48859375 253.77734375 76.80859375 253.77734375 C75.2384129 251.81077673 73.79689339 249.84578442 72.37109375 247.77734375 C71.93079834 247.14940918 71.49050293 246.52147461 71.03686523 245.87451172 C69.61947896 243.84753187 68.21290401 241.81340073 66.80859375 239.77734375 C66.35742188 239.12540039 65.90625 238.47345703 65.44140625 237.80175781 C63.62486689 235.1753884 61.81000612 232.54822614 60.01513672 229.90698242 C57.59982449 226.35371137 55.1411166 222.84580803 52.59765625 219.3828125 C52.07872803 218.66399902 51.5597998 217.94518555 51.02514648 217.20458984 C50.02628047 215.82311493 49.01326119 214.45173424 47.98461914 213.09228516 C46.6328125 211.203125 46.6328125 211.203125 44.80859375 207.77734375 C45.50934371 203.80259808 47.67352895 201.50413666 50.49609375 198.71484375 C51.13933594 198.06386719 51.78257812 197.41289062 52.4453125 196.7421875 C55.38941649 194.29444484 58.44478688 192.60364277 61.80859375 190.77734375 C61.4211499 190.27920166 61.03370605 189.78105957 60.63452148 189.26782227 C59.48095703 187.78466797 58.32739258 186.30151367 57.17382812 184.81835938 C56.53767578 184.00044922 55.90152344 183.18253906 55.24609375 182.33984375 C50.43359375 176.15234375 45.62109375 169.96484375 40.80859375 163.77734375 C42.34045395 160.07798577 44.55846092 157.88956396 47.46484375 155.171875 C48.86875366 153.83274048 48.86875366 153.83274048 50.30102539 152.46655273 C50.79313507 151.99740448 51.28524475 151.52825623 51.79226685 151.04489136 C61.30482168 141.91676726 69.31839175 132.90881851 74.80859375 120.77734375 C75.08960938 120.15972168 75.370625 119.54209961 75.66015625 118.90576172 C78.27195051 112.99911293 80.3575677 107.24205052 80.80859375 100.77734375 C80.08027344 100.50019531 79.35195313 100.22304687 78.6015625 99.9375 C63.48744579 93.65932844 53.65229587 82.04289693 44.80859375 68.77734375 C40.37080143 69.38974231 36.76706813 71.10815797 32.87109375 73.21484375 C32.2172168 73.56828857 31.56333984 73.9217334 30.88964844 74.28588867 C20.01577103 80.3073179 10.65532243 87.40731878 2.11328125 96.4296875 C0.11253974 98.46773097 -1.85588245 100.14678221 -4.19140625 101.77734375 C-8.40962299 100.23813302 -10.53299137 97.12115399 -13.12890625 93.65234375 C-14.10539599 92.37785169 -15.08331888 91.10445671 -16.0625 89.83203125 C-16.57280762 89.16655273 -17.08311523 88.50107422 -17.60888672 87.81542969 C-20.24420711 84.42146878 -22.96943728 81.10190451 -25.69140625 77.77734375 C-30.19930609 72.25554723 -34.63926742 66.68763474 -39.02514648 61.06860352 C-42.54515741 56.57070566 -46.13995154 52.13746765 -49.75390625 47.71484375 C-55.37104 40.83842389 -60.8255351 33.85108811 -66.19140625 26.77734375 C-62.50614181 23.62547285 -58.35253519 21.97194406 -53.94140625 20.08984375 C-47.93433371 17.47087892 -41.98686837 14.77838703 -36.12890625 11.83984375 C-35.48598633 11.51862549 -34.84306641 11.19740723 -34.18066406 10.86645508 C-30.64056932 9.07746494 -27.15530978 7.21296438 -23.6953125 5.2734375 C-22.9432251 4.85763428 -22.1911377 4.44183105 -21.41625977 4.01342773 C-19.97738874 3.21401986 -18.54618705 2.40057842 -17.12475586 1.57055664 C-11.20331171 -1.70995963 -6.54946081 -2.50915696 0 0 Z " fill="#FDFDFD" transform="translate(250.19140625,143.22265625)"/>
<path d="M0 0 C3.04365413 2.31149983 5.1747304 5.12963566 7.4375 8.1875 C8.04787109 8.95642578 8.65824219 9.72535156 9.28710938 10.51757812 C12.1853272 14.24020631 14.3734487 17.54170219 16 22 C16.66 22 17.32 22 18 22 C19.68467264 23.9639171 21.25509766 25.93808704 22.8125 28 C23.8072784 29.29267996 24.80342705 30.58430633 25.80078125 31.875 C26.32365723 32.55304688 26.8465332 33.23109375 27.38525391 33.9296875 C30.03712124 37.32972303 32.76932219 40.66318246 35.5 44 C40.00775515 49.52191726 44.44785855 55.08970566 48.83374023 60.70874023 C52.35375146 65.20663846 55.94856888 69.63985702 59.5625 74.0625 C64.28965275 79.8499487 68.87839776 85.7181909 73.41015625 91.66015625 C76.88528049 96.17741068 80.50732963 100.57540339 84.11328125 104.98828125 C87.62336198 109.28936608 91.08417075 113.62376186 94.5 118 C98.44185585 123.04854395 102.45054277 128.03737738 106.5 133 C110.72307044 138.18055055 114.92164308 143.37841017 119.0625 148.625 C119.50335938 149.18058594 119.94421875 149.73617187 120.3984375 150.30859375 C123.11898484 153.77034284 125.60256874 157.31249603 128 161 C127.53215088 161.43231934 127.06430176 161.86463867 126.58227539 162.31005859 C114.79760192 173.19740493 114.79760192 173.19740493 103.84375 184.90234375 C102.09046442 186.89707756 100.27092847 188.76649118 98.375 190.625 C95.26766721 193.67465608 92.42003733 196.90285647 89.578125 200.19921875 C87.80350185 202.2242219 85.94223065 204.13545857 84 206 C83.608125 205.30777344 83.21625 204.61554688 82.8125 203.90234375 C80.75371519 200.60562584 78.42269782 197.59322068 76 194.5625 C75.00768866 193.31129612 74.01550463 192.05999127 73.0234375 190.80859375 C72.5190918 190.17421387 72.01474609 189.53983398 71.49511719 188.88623047 C70.0857333 187.10816059 68.68524645 185.32360141 67.2890625 183.53515625 C62.40477219 177.28032458 57.45746025 171.08409072 52.4375 164.9375 C47.67142808 159.09927131 43.02383218 153.18820542 38.44921875 147.19921875 C31.39444204 137.96413278 24.12755561 128.90530781 16.77734375 119.90454102 C12.91995975 115.16739267 9.16031352 110.36560988 5.45458984 105.50927734 C2.39932457 101.506643 -0.7265458 97.56768203 -3.8828125 93.64453125 C-6.37818797 90.52761391 -8.84732707 87.39082249 -11.3125 84.25 C-11.77922119 83.65566162 -12.24594238 83.06132324 -12.72680664 82.44897461 C-15.05179181 79.48689811 -17.37365424 76.522427 -19.69140625 73.5546875 C-25.18453807 66.53012498 -30.7500895 59.57167716 -36.40966797 52.68017578 C-37.95148598 50.79583966 -39.4800395 48.90200724 -41 47 C-41.55896973 46.30156982 -42.11793945 45.60313965 -42.69384766 44.88354492 C-43.23702637 44.18592041 -43.78020508 43.4882959 -44.33984375 42.76953125 C-45.07835571 41.82750854 -45.07835571 41.82750854 -45.83178711 40.86645508 C-47.46784279 38.25252703 -47.84050417 36.11358247 -47.578125 33.06640625 C-43.77192716 19.46182072 -28.60227873 9.87349124 -17.03515625 3.3203125 C-11.49977577 0.57203103 -6.21618498 -1.56897305 0 0 Z " fill="#78787C" transform="translate(117,85)"/>
<path d="M0 0 C11.07005291 11.07005291 10.19979521 38.17320171 10.24023438 53.02954102 C10.24990533 55.1665799 10.28101478 57.30263978 10.3125 59.43945312 C10.49093723 82.45702676 3.57447102 105.78253033 -12.6015625 122.7109375 C-26.37850628 135.85961675 -45.71351053 145.08535003 -64 150 C-64.63550781 150.19207031 -65.27101563 150.38414062 -65.92578125 150.58203125 C-74.34496748 152.27855277 -82.92358898 152.25206741 -90.5 148 C-95.64797521 144.50326212 -100.05425768 140.81411032 -104 136 C-104.43151367 135.484375 -104.86302734 134.96875 -105.30761719 134.4375 C-111.91665481 126.34292365 -115.56627603 119.58671447 -114.59375 108.984375 C-112.18055385 91.09524703 -105.30126023 75.91282729 -90.9375 64.625 C-84.07619169 59.55292175 -77.28182707 57.40455048 -68.9375 56.125 C-44.37419764 51.86948259 -24.54752963 39.24368326 -10 19 C-6.08856279 12.92316675 -2.60645618 6.74612187 0 0 Z " fill="#443B3D" transform="translate(423,81)"/>
<path d="M0 0 C2.38606061 1.23607858 3.52746569 2.57385077 5.15698242 4.71069336 C5.74866211 5.47897461 6.3403418 6.24725586 6.94995117 7.03881836 C7.55709961 7.84834961 8.16424805 8.65788086 8.78979492 9.49194336 C9.38920898 10.27053711 9.98862305 11.04913086 10.60620117 11.85131836 C14.60266632 17.08746793 18.32682116 22.46893824 21.91479492 27.99194336 C20.75979492 28.48694336 19.60479492 28.98194336 18.41479492 29.49194336 C13.2397191 32.0748689 7.29359628 36.31076407 5.19677734 41.90893555 C4.69206692 45.63723799 7.55089231 48.36452314 9.66479492 51.24194336 C10.69518051 52.68824624 11.72511655 54.13486946 12.75463867 55.58178711 C13.28428223 56.31768066 13.81392578 57.05357422 14.35961914 57.81176758 C16.25430622 60.46789876 18.0854022 63.16343481 19.91333008 65.86572266 C26.07173743 74.95229136 32.54887233 83.79730062 39.11987305 92.58862305 C40.33020811 94.2092077 41.53717013 95.8323163 42.7409668 97.45776367 C44.49887393 99.82970834 46.26762082 102.19314658 48.03979492 104.55444336 C48.5720166 105.27494873 49.10423828 105.9954541 49.65258789 106.73779297 C50.15419434 107.40045166 50.65580078 108.06311035 51.17260742 108.74584961 C51.60718262 109.32665283 52.04175781 109.90745605 52.48950195 110.50585938 C54.949293 113.07056442 57.31675774 113.9009377 60.78979492 114.42944336 C64.92375921 113.85068836 67.28472294 112.10222512 69.91479492 108.99194336 C71.4628163 106.40712988 72.74442047 103.76641926 73.91479492 100.99194336 C82.16196512 109.04935566 89.16241914 118.21017641 96.14135742 127.36303711 C98.80884915 130.86104856 101.50121306 134.3393652 104.20068359 137.81274414 C105.41929714 139.3809427 106.6356368 140.9509111 107.84960938 142.52270508 C110.37964857 145.78896572 112.91071335 149.03354821 115.62182617 152.15209961 C116.7259082 153.43407227 116.7259082 153.43407227 117.85229492 154.74194336 C118.48006836 155.43803711 119.1078418 156.13413086 119.75463867 156.85131836 C120.91479492 158.99194336 120.91479492 158.99194336 120.90698242 161.89819336 C117.26481776 173.25486428 101.36325306 184.83301808 91.33203125 190.17236328 C81.86935321 194.99151575 81.86935321 194.99151575 77.91479492 193.99194336 C75.55162319 191.86504841 73.70165685 189.39768719 71.78979492 186.86694336 C71.22067383 186.13991211 70.65155273 185.41288086 70.06518555 184.66381836 C68.33520055 182.44974615 66.62488232 180.22139808 64.91479492 177.99194336 C63.5267735 176.21501667 62.13265764 174.4430464 60.73730469 172.671875 C59.85027095 171.54511127 58.96536484 170.41666956 58.08251953 169.28662109 C54.56371888 164.78624353 50.96697747 160.35300592 47.35229492 155.92944336 C42.62628914 150.1433989 38.03811056 144.27707167 33.50854492 138.33569336 C30.5526843 134.49307455 27.48371685 130.74443026 24.41479492 126.99194336 C20.50574367 122.21219856 16.65847469 117.40248435 12.91479492 112.49194336 C8.65333618 106.90439048 4.24930606 101.4475791 -0.19628906 96.00585938 C-4.18487212 91.11751665 -8.10548656 86.18124713 -11.99121094 81.2109375 C-15.32666064 76.94753076 -18.69776518 72.71413551 -22.08520508 68.49194336 C-26.56822378 62.90292395 -31.01505491 57.28694669 -35.43286133 51.64624023 C-37.96518334 48.41307681 -40.51388626 45.19418762 -43.08520508 41.99194336 C-41.75708657 39.00892141 -40.35801758 37.06318843 -37.94458008 34.87475586 C-37.29642334 34.27783936 -36.6482666 33.68092285 -35.98046875 33.06591797 C-35.27253174 32.42275635 -34.56459473 31.77959473 -33.83520508 31.11694336 C-28.49103986 26.2058832 -23.26769141 21.21221126 -18.20629883 16.01147461 C-17.71290009 15.50694763 -17.21950134 15.00242065 -16.71115112 14.48260498 C-14.73909073 12.4653533 -12.7675806 10.4483866 -10.82067871 8.40679932 C-9.45505144 6.97534667 -8.07317791 5.55944681 -6.69067383 4.14428711 C-5.89814209 3.31920654 -5.10561035 2.49412598 -4.2890625 1.64404297 C-2.08520508 -0.00805664 -2.08520508 -0.00805664 0 0 Z " fill="#78787C" transform="translate(291.085205078125,307.008056640625)"/>
<path d="M0 0 C3.7229703 2.6592645 6.55543557 5.73587115 8.625 9.875 C10.14385542 21.98244748 4.68764403 31.43253002 -1.23828125 41.59765625 C-2.5982998 43.89815449 -2.5982998 43.89815449 -2.375 46.875 C-2.90867187 47.02195313 -3.44234375 47.16890625 -3.9921875 47.3203125 C-17.46344389 51.37567342 -27.19796137 59.25975751 -34.12109375 71.46484375 C-35.72514598 74.54802202 -37.10869541 77.63888828 -38.375 80.875 C-45.31642379 78.67545419 -51.96005289 76.05329403 -58.625 73.125 C-59.68605957 72.65980957 -60.74711914 72.19461914 -61.84033203 71.71533203 C-72.12584917 67.12462099 -82.10764908 61.9921133 -92.06738281 56.73925781 C-92.66682709 56.42346771 -93.26627136 56.10767761 -93.88388062 55.78231812 C-95.51394891 54.92169417 -97.14158102 54.05646047 -98.76904297 53.19091797 C-103.28732077 50.9093443 -107.3669247 50.09135077 -112.375 50.875 C-115.86127716 52.2980309 -119.02054486 54.19861686 -122.25 56.125 C-130.80196214 61.01668398 -139.47383162 65.41016114 -148.4375 69.5 C-150.10498291 70.26231934 -150.10498291 70.26231934 -151.80615234 71.04003906 C-164.66805638 76.875 -164.66805638 76.875 -168.375 76.875 C-170.13167781 74.91633484 -171.68801163 72.98155534 -173.25 70.875 C-174.23553613 69.58223196 -175.2225758 68.29060908 -176.2109375 67 C-176.7275293 66.32195312 -177.24412109 65.64390625 -177.77636719 64.9453125 C-180.40991943 61.5347256 -183.14403472 58.20770339 -185.875 54.875 C-190.37622798 49.36188856 -194.81401513 43.805913 -199.18676758 38.19042969 C-201.73335865 34.9305692 -204.32012078 31.7094507 -206.94921875 28.515625 C-207.54992187 27.78472656 -208.150625 27.05382812 -208.76953125 26.30078125 C-209.94627553 24.87279309 -211.12714001 23.44818821 -212.3125 22.02734375 C-212.84230469 21.38410156 -213.37210938 20.74085937 -213.91796875 20.078125 C-214.39258545 19.50739258 -214.86720215 18.93666016 -215.35620117 18.34863281 C-216.375 16.875 -216.375 16.875 -216.375 14.875 C-217.035 14.545 -217.695 14.215 -218.375 13.875 C-217.715 13.875 -217.055 13.875 -216.375 13.875 C-216.13910156 13.27171875 -215.90320313 12.6684375 -215.66015625 12.046875 C-213.22597188 7.93317739 -208.73114235 6.44545475 -204.375 4.875 C-199.95696382 4.11399855 -196.44775374 4.53844981 -192.1875 5.875 C-184.30969403 11.47699535 -181.81841484 19.46918729 -179.25 28.4375 C-177.21343481 35.40189863 -175.32934484 41.75015921 -171.375 47.875 C-165.9689399 47.49562736 -162.54806746 44.33101362 -158.4375 41.125 C-157.74720703 40.5990625 -157.05691406 40.073125 -156.34570312 39.53125 C-154.34147092 37.9962551 -152.35695819 36.43859554 -150.375 34.875 C-149.78944336 34.42809814 -149.20388672 33.98119629 -148.60058594 33.52075195 C-145.56187225 31.13312547 -143.63682616 29.28876352 -142.5 25.5625 C-141.943125 23.7371875 -141.943125 23.7371875 -141.375 21.875 C-137.27279385 22.40431692 -135.38212706 24.53667426 -132.5 27.375 C-124.92552033 34.47926905 -115.07611791 43.107633 -104.375 42.875 C-103.17357602 40.47215204 -103.3287433 39.15061936 -103.453125 36.48046875 C-103.47890625 35.60712891 -103.5046875 34.73378906 -103.53125 33.83398438 C-103.59337426 31.99743582 -103.67131183 30.16134899 -103.765625 28.32617188 C-103.92421224 21.58125823 -103.92421224 21.58125823 -100.984375 17.80078125 C-95.98226212 14.10910214 -91.45954326 14.36575973 -85.375 14.875 C-82.25562031 16.24752707 -80.8852285 16.854543 -79.375 19.875 C-79.27944583 21.33079587 -79.24515309 22.7910796 -79.25 24.25 C-79.24742187 25.02085938 -79.24484375 25.79171875 -79.2421875 26.5859375 C-79.37166719 28.81755803 -79.80692961 30.7207023 -80.375 32.875 C-80.73788236 37.86463243 -80.64255745 40.97501208 -77.375 44.875 C-71.51819217 48.76107114 -65.40896643 50.58079417 -58.6875 52.5 C-56.64098647 53.09311822 -54.59537244 53.68935113 -52.55078125 54.2890625 C-51.65270752 54.5463916 -50.75463379 54.8037207 -49.8293457 55.06884766 C-47.53515508 55.8223956 -45.49869321 56.73382802 -43.375 57.875 C-43.08625 57.276875 -42.7975 56.67875 -42.5 56.0625 C-41.375 53.875 -41.375 53.875 -39.375 50.875 C-38.611875 51.184375 -37.84875 51.49375 -37.0625 51.8125 C-35.18710323 52.55393593 -33.28815348 53.23728217 -31.375 53.875 C-30.735625 52.781875 -30.09625 51.68875 -29.4375 50.5625 C-29.07785156 49.94761719 -28.71820313 49.33273438 -28.34765625 48.69921875 C-26.18820531 44.64916418 -26.29702931 41.34225236 -26.3828125 36.828125 C-26.40034019 35.41146564 -26.41724736 33.99479849 -26.43359375 32.578125 C-26.46443985 30.35524717 -26.4998374 28.13276369 -26.54638672 25.91015625 C-26.58907006 23.75776476 -26.61226679 21.60582713 -26.6328125 19.453125 C-26.6548877 18.16825195 -26.67696289 16.88337891 -26.69970703 15.55957031 C-26.28069268 10.80486013 -25.05677445 6.82831095 -21.875 3.1328125 C-15.2240165 -1.89006566 -7.93027918 -2.64342639 0 0 Z " fill="#5BCAE9" transform="translate(351.375,92.125)"/>
<path d="M0 0 C2.12109375 2.28125 2.12109375 2.28125 4.4375 5.5 C5.3192232 6.69967793 6.20345928 7.89751193 7.08984375 9.09375 C7.55890137 9.73054687 8.02795898 10.36734375 8.51123047 11.0234375 C11.07599323 14.4285407 13.79298281 17.70771401 16.5 21 C21.29044232 26.8567673 25.95812939 32.78817905 30.55078125 38.80078125 C37.07380166 47.33976934 43.76671257 55.73952464 50.5625 64.0625 C55.31468622 69.88387591 59.95582643 75.77194905 64.50390625 81.75390625 C66.31160344 84.12299101 68.15879835 86.45596058 70.02734375 88.77734375 C70.53313965 89.40882324 71.03893555 90.04030273 71.56005859 90.69091797 C72.53802552 91.90916537 73.52117585 93.1232757 74.51025391 94.33251953 C79.06106981 100.01979329 79.06106981 100.01979329 79 103 C77.55078125 105.33984375 77.55078125 105.33984375 75.3125 107.9375 C74.48363281 108.90558594 73.65476562 109.87367188 72.80078125 110.87109375 C69.40979665 114.69153069 65.9326419 118.43236741 62.44458008 122.1640625 C58.55758029 126.33914813 54.92053546 130.66892046 51.34765625 135.1171875 C48.60424996 138.48596261 45.77690304 141.77467715 42.9375 145.0625 C37.44706377 151.43454292 32.09635996 157.89808948 27.02734375 164.61328125 C26.39957031 165.44214844 25.77179688 166.27101563 25.125 167.125 C24.57070312 167.87007812 24.01640625 168.61515625 23.4453125 169.3828125 C22.96835938 169.91648437 22.49140625 170.45015625 22 171 C21.34 171 20.68 171 20 171 C19.88930176 170.29504395 19.77860352 169.59008789 19.66455078 168.86376953 C19.15349776 165.61717359 18.6392679 162.37108819 18.125 159.125 C17.95097656 158.01640625 17.77695313 156.9078125 17.59765625 155.765625 C16.70269213 150.13066573 15.72842791 144.53318626 14.58056641 138.94482422 C13.14292056 131.65261049 11.90530598 124.3211457 10.625 117 C10.39206238 115.67074493 10.39206238 115.67074493 10.15441895 114.31463623 C7.73039907 100.46037267 5.49156758 86.59052917 3.40869141 72.68066406 C2.46549255 66.49409089 1.41073183 60.32584902 0.36328125 54.15625 C-0.02440367 51.8551524 -0.403684 49.55277877 -0.78125 47.25 C-2.29475705 37.94575215 -2.29475705 37.94575215 -4.0625 28.6875 C-8.53069255 6.98485047 -8.53069255 6.98485047 -5.75 1.5625 C-4 0 -4 0 0 0 Z " fill="#FDFDFE" transform="translate(122,188)"/>
<path d="M0 0 C3.09963646 1.35008431 4.907999 2.7533894 7.0234375 5.37890625 C7.56718018 6.04921875 8.11092285 6.71953125 8.67114258 7.41015625 C9.23341553 8.12042969 9.79568848 8.83070313 10.375 9.5625 C10.95209717 10.28179687 11.52919434 11.00109375 12.1237793 11.7421875 C16.02671833 16.65057138 19.73747906 21.63695188 23 27 C22.05640625 27.44988281 21.1128125 27.89976562 20.140625 28.36328125 C9.10978715 33.81591836 -2.07560136 40.7616794 -8 52 C-8.41488044 57.83839542 -7.67633767 61.7695193 -5.41015625 67.24609375 C-5.14617538 67.9015065 -4.88219452 68.55691925 -4.61021423 69.23219299 C-3.77393257 71.30619436 -2.92027582 73.37230491 -2.0625 75.4375 C6.39840287 95.88248045 6.39840287 95.88248045 3.875 103.3125 C1.0982618 107.29249143 -2.40452409 110.32891785 -7 112 C-10.87752947 112.50576471 -12.65469381 112.18646534 -16.125 110.3125 C-22.96221885 104.81299788 -25.12022353 99.15300645 -26.0625 90.625 C-26.14918945 89.89966064 -26.23587891 89.17432129 -26.32519531 88.42700195 C-26.81072564 84.00876824 -27.06270523 79.63588174 -27.13671875 75.19140625 C-27.21290977 58.16779933 -27.21290977 58.16779933 -35.953125 44.02734375 C-37.58514199 42.62420719 -39.28644298 41.30230334 -41 40 C-41 38 -41 38 -39.6015625 36.58984375 C-38.94929688 36.04457031 -38.29703125 35.49929688 -37.625 34.9375 C-36.88636719 34.3084375 -36.14773438 33.679375 -35.38671875 33.03125 C-34.59910156 32.3609375 -33.81148438 31.690625 -33 31 C-21.69877861 21.02484137 -10.50948265 10.81167224 0 0 Z " fill="#5BCAE9" transform="translate(304,421)"/>
<path d="M0 0 C6.90971776 5.68302723 13.10865023 12.04007484 19.3815918 18.40209961 C24.53820106 23.6253023 29.71812542 28.74990059 35.30004883 33.52270508 C37.60870353 35.52897675 39.74361216 37.68293208 41.875 39.875 C44.65392917 42.8276549 44.65392917 42.8276549 48 45 C46.47790087 49.56629738 43.17724402 51.77265033 39 54 C35.9375 53.875 35.9375 53.875 33 52 C31.17708888 49.97777285 29.45770951 47.88617387 27.7265625 45.78515625 C26.00461162 43.74230358 26.00461162 43.74230358 22.875 42.875 C19.81040213 43.00824339 17.79604201 43.80438607 15 45 C14.83395264 44.40985107 14.66790527 43.81970215 14.49682617 43.21166992 C13.7372184 40.53394055 12.96255465 37.86079723 12.1875 35.1875 C11.92646484 34.25873047 11.66542969 33.32996094 11.39648438 32.37304688 C11.13544922 31.48037109 10.87441406 30.58769531 10.60546875 29.66796875 C10.36981201 28.84578857 10.13415527 28.0236084 9.89135742 27.17651367 C8.90187772 24.76040534 8.10216842 23.54568497 6 22 C3.92882585 21.57305706 3.92882585 21.57305706 1.65625 21.671875 C0.82222656 21.67703125 -0.01179688 21.6821875 -0.87109375 21.6875 C-1.73863281 21.708125 -2.60617188 21.72875 -3.5 21.75 C-4.80130859 21.75773437 -4.80130859 21.75773437 -6.12890625 21.765625 C-9.72298033 21.81006486 -12.56393216 21.85464405 -16 23 C-16.78586071 25.56375853 -17.4033515 28.00790558 -17.9375 30.625 C-20.58651062 43.52556292 -20.58651062 43.52556292 -25.9453125 47.41015625 C-29.99044744 48.57140221 -33.84892507 48.63054303 -38 48 C-43.14246686 44.85738136 -45.17742283 41.09865535 -48 36 C-47.54898926 35.67950684 -47.09797852 35.35901367 -46.63330078 35.02880859 C-36.29387756 27.66434666 -26.16001537 20.0913873 -16.171875 12.2578125 C-10.84641649 8.08400273 -5.43571856 4.0288267 0 0 Z " fill="#5ACAE9" transform="translate(174,411)"/>
<path d="M0 0 C4.36574037 1.67436065 6.18155497 5.15074021 8.75 8.9296875 C9.31251465 9.73253174 9.8750293 10.53537598 10.45458984 11.36254883 C12.23646286 13.91547699 13.99580441 16.48267718 15.75 19.0546875 C16.30848633 19.87018066 16.86697266 20.68567383 17.44238281 21.52587891 C19.63391505 24.72675427 21.82281314 27.92935387 24.00268555 31.13818359 C27.43400455 36.17827472 30.94580953 41.14600567 34.5625 46.0546875 C35.00843506 46.66199707 35.45437012 47.26930664 35.91381836 47.89501953 C37.97883242 50.69624932 40.06758318 53.47304279 42.2109375 56.21484375 C43.31308594 57.65150391 43.31308594 57.65150391 44.4375 59.1171875 C45.08074219 59.93316406 45.72398437 60.74914062 46.38671875 61.58984375 C48.08314657 64.65702414 48.12855629 66.59627204 47.75 70.0546875 C45.69538687 73.79701855 43.63427991 77.11254755 39.75 79.0546875 C36.45173756 78.8377548 34.4102231 78.62294605 31.87109375 76.4375 C31.31550781 75.69242187 30.75992188 74.94734375 30.1875 74.1796875 C29.51074219 73.27734375 28.83398438 72.375 28.13671875 71.4453125 C24.6162998 66.4970419 21.21445312 61.46465725 17.8125 56.43457031 C13.77996613 50.49005917 9.5693515 44.71949988 5.22216797 39.00268555 C-13.32802382 14.53950446 -13.32802382 14.53950446 -13.12109375 10.6015625 C-12.06792026 7.52232881 -10.81546252 6.35050858 -8.3125 4.3046875 C-7.60222656 3.71171875 -6.89195312 3.11875 -6.16015625 2.5078125 C-3.93419603 0.81444399 -2.81566188 0.06843623 0 0 Z " fill="#77787C" transform="translate(314.25,338.9453125)"/>
<path d="M0 0 C0.33 0 0.66 0 1 0 C2.11211022 5.22592872 2.59492087 10.4335646 3.0625 15.75 C3.15192871 16.76392822 3.24135742 17.77785645 3.33349609 18.82250977 C4.05586441 27.56729422 4.21183183 36.23251604 4 45 C-3.76567525 42.77307842 -11.40360928 40.2020203 -19.03466797 37.55615234 C-21.02351977 36.86684843 -23.01362946 36.18127101 -25.00390625 35.49609375 C-34.72215648 32.13892176 -34.72215648 32.13892176 -37 31 C-37 30.34 -37 29.68 -37 29 C-35.44152344 28.27296875 -35.44152344 28.27296875 -33.8515625 27.53125 C-25.41491797 23.51095439 -17.93886141 19.37451778 -11 13 C-10.33355469 12.39027344 -9.66710937 11.78054688 -8.98046875 11.15234375 C-5.38922236 7.71230774 -2.65748781 4.19065385 0 0 Z " fill="#7B7C80" transform="translate(413,475)"/>
<path d="M0 0 C2.84982171 1.86109273 5.27225272 4.11309072 7.75 6.4375 C9.07685296 7.64592942 10.40492085 8.85302661 11.734375 10.05859375 C12.60400879 10.86768188 12.60400879 10.86768188 13.49121094 11.69311523 C14.9841362 13.09522002 14.9841362 13.09522002 17 14 C17 14.66 17 15.32 17 16 C16.40574219 16.1959375 15.81148437 16.391875 15.19921875 16.59375 C3.64234765 20.76356975 -7.13621045 28.70431568 -14 39 C-14.66 39 -15.32 39 -16 39 C-17.1537724 36.2948104 -18.29814759 33.58625741 -19.4375 30.875 C-19.76298828 30.11445312 -20.08847656 29.35390625 -20.42382812 28.5703125 C-23.79046231 20.51815652 -23.79046231 20.51815652 -24 16 C-20.36826115 7.73361533 -9.32794521 -1.52086063 0 0 Z " fill="#7A7B7F" transform="translate(87,69)"/>
<path d="M0 0 C0.66 0.66 1.32 1.32 2 2 C2.928125 2.2475 3.85625 2.495 4.8125 2.75 C9.01388733 4.39760287 10.60330384 6.19348257 13 10 C14.00806526 14.40042399 13.35164175 17.30974027 11.3125 21.3125 C8.28422667 24.83184469 5.74873485 26.7387489 1.09765625 27.43359375 C-5.08075853 27.44154538 -9.24015616 27.39370201 -14 23 C-17.48000891 19.08076666 -17.73190284 15.95830131 -17.62890625 10.8359375 C-16.51600719 5.81752312 -12.9896337 2.99623093 -9 0 C-5.88135455 -1.55932272 -3.33704665 -0.65549131 0 0 Z " fill="#5BCAE9" transform="translate(112,472)"/>
<path d="M0 0 C3.47432573 2.50151452 5.39041469 5.04919969 7 9 C4.72606246 10.89494795 2.90774868 11.9949382 -0.1015625 12.01171875 C-1.76583039 11.83011297 -3.42738701 11.62251931 -5.0859375 11.39453125 C-8.42788911 10.94206863 -11.76176456 10.6829649 -15.125 10.4375 C-16.79949219 10.31181641 -16.79949219 10.31181641 -18.5078125 10.18359375 C-19.74144531 10.09271484 -19.74144531 10.09271484 -21 10 C-20.67 7.36 -20.34 4.72 -20 2 C-13.40139144 -0.03034109 -6.89279533 -0.98185142 0 0 Z " fill="#5DCAE9" transform="translate(451,157)"/>
<path d="M0 0 C0.66 0.33 1.32 0.66 2 1 C2 1.66 2 2.32 2 3 C1.33355469 3.32871094 0.66710937 3.65742187 -0.01953125 3.99609375 C-6.51931978 7.35053007 -12.02652926 11.20524366 -17.58984375 15.94921875 C-23.22025052 20.74008351 -23.22025052 20.74008351 -27 22 C-22.79835254 12.52528498 -12.18280253 5.21912548 -3 1 C-2.01 0.67 -1.02 0.34 0 0 Z " fill="#F5F5F5" transform="translate(101,85)"/>
<path d="M0 0 C-1.39253532 3.48133831 -2.63176216 4.47886033 -6 6 C-6.33 6.66 -6.66 7.32 -7 8 C-7 5 -7 5 -4.625 2.3125 C-2 0 -2 0 0 0 Z M-8 7 C-9.39332574 10.36720387 -10.9789286 11.9859524 -14 14 C-14 11 -14 11 -12.125 8.8125 C-10 7 -10 7 -8 7 Z M-17 13 C-16.34 13.33 -15.68 13.66 -15 14 C-16.98 14.99 -16.98 14.99 -19 16 C-18.34 15.01 -17.68 14.02 -17 13 Z " fill="#EDECED" transform="translate(224,370)"/>
<path d="M0 0 C0.66 0.33 1.32 0.66 2 1 C-5.875 10.625 -5.875 10.625 -10 12 C-8.52278578 8.54798361 -6.56205999 6.35038064 -3.875 3.75 C-3.15054688 3.04359375 -2.42609375 2.3371875 -1.6796875 1.609375 C-1.12539062 1.07828125 -0.57109375 0.5471875 0 0 Z " fill="#EBEBEC" transform="translate(84,95)"/>
<path d="M0 0 C-1.5830577 4.2742558 -4.50568404 6.26531794 -8 9 C-7.53918323 4.85264908 -4.48412936 0 0 0 Z " fill="#6D6E73" transform="translate(310,341)"/>
</svg>
