<?xml version="1.0" encoding="UTF-8" standalone="no"?>
<!-- Created with Inkscape (http://www.inkscape.org/) -->

<svg
   width="90.236061mm"
   height="98.89518mm"
   viewBox="0 0 90.236061 98.89518"
   version="1.1"
   id="svg5"
   inkscape:version="1.1.2 (b8e25be833, 2022-02-05)"
   sodipodi:docname="Rec Room Icon.svg"
   xmlns:inkscape="http://www.inkscape.org/namespaces/inkscape"
   xmlns:sodipodi="http://sodipodi.sourceforge.net/DTD/sodipodi-0.dtd"
   xmlns="http://www.w3.org/2000/svg"
   xmlns:svg="http://www.w3.org/2000/svg">
  <sodipodi:namedview
     id="namedview7"
     pagecolor="#ffffff"
     bordercolor="#666666"
     borderopacity="1.0"
     inkscape:pageshadow="2"
     inkscape:pageopacity="0.0"
     inkscape:pagecheckerboard="0"
     inkscape:document-units="mm"
     showgrid="false"
     inkscape:zoom="0.64052329"
     inkscape:cx="249.79576"
     inkscape:cy="293.51002"
     inkscape:window-width="1920"
     inkscape:window-height="1017"
     inkscape:window-x="-8"
     inkscape:window-y="-8"
     inkscape:window-maximized="1"
     inkscape:current-layer="layer1-7" />
  <defs
     id="defs2" />
  <g
     inkscape:label="Layer 1"
     inkscape:groupmode="layer"
     id="layer1"
     transform="translate(-38.627022,-70.814882)">
    <g
       id="layer1-7"
       transform="translate(9.4108631,11.611333)">
      <path
         style="fill:#f16e46;fill-opacity:1;stroke-width:0.0736318"
         d="m 38.199273,158.08 c -2.567387,-0.31178 -4.699136,-1.26246 -6.325448,-2.82089 -1.218111,-1.16726 -2.040582,-2.513 -2.455184,-4.01721 -0.202482,-0.73458 -0.202482,-0.73458 -0.202482,-42.59442 0,-41.859821 0,-41.859821 0.202482,-42.594417 0.417821,-1.515867 1.245454,-2.865106 2.470465,-4.027476 1.447418,-1.373362 3.297043,-2.288536 5.426572,-2.684953 0.711749,-0.13246 1.948988,-0.137085 37.03692,-0.137085 35.087952,0 36.325192,0.0037 37.036942,0.137085 2.12953,0.396417 3.97915,1.311591 5.42653,2.684953 1.23656,1.173304 2.08167,2.558303 2.45208,4.018504 0.18407,0.725642 0.18407,0.725642 0.18407,42.603389 0,41.87777 0,41.87777 -0.18407,42.60339 -0.37041,1.4602 -1.21552,2.84522 -2.45208,4.0185 -1.39417,1.32288 -3.08686,2.18559 -5.20982,2.6553 -0.73214,0.16206 -0.73214,0.16206 -36.959096,0.17205 -19.924854,0.006 -36.326374,-0.002 -36.447881,-0.0166 z m 72.822117,-6.2282 c 1.12087,-0.384 1.87132,-0.9498 2.24106,-1.68974 0.22559,-0.4514 0.22559,-0.4514 0.22559,-12.92028 0,-6.85787 -0.0148,-12.46887 -0.0313,-12.46887 -0.0166,0 -0.4231,0.243 -0.90202,0.54001 -7.14955,4.43403 -15.625118,7.68266 -24.127973,9.24805 -4.074854,0.75019 -7.569902,1.08954 -11.93885,1.15914 -3.783296,0.0603 -6.531316,-0.0844 -10.124395,-0.5326 -10.611201,-1.32393 -21.11675,-5.16509 -30.027658,-10.97904 -0.579382,-0.37802 -1.068132,-0.68731 -1.086077,-0.68731 -0.0185,0 -0.03219,5.88965 -0.03182,13.08809 0,13.08811 0,13.08811 0.174455,13.46108 0.427755,0.91864 1.442589,1.60959 2.806979,1.91118 0.36406,0.0805 6.756811,0.0953 36.337418,0.0849 35.895621,-0.0129 35.895621,-0.0129 36.484681,-0.21458 z M 78.975884,129.63151 c 12.354101,-0.72869 23.810896,-4.67453 33.720596,-11.61367 l 0.79156,-0.55428 V 98.660448 79.857357 H 102.8482 92.208381 V 95.246448 110.63556 H 89.189466 86.17057 V 95.246448 79.857357 H 74.352598 62.534663 V 95.246448 110.63556 H 59.515749 56.496834 V 95.246448 79.857357 H 45.857013 35.217173 l 2.22e-4,18.095061 2.22e-4,18.095082 1.085855,0.80885 c 10.06536,7.4977 22.427268,11.98514 35.17749,12.76963 1.424219,0.0875 6.045118,0.091 7.494922,0.006 z M 113.48804,70.701916 c 0,-3.117593 0,-3.117593 -0.22559,-3.569011 -0.36974,-0.739924 -1.12019,-1.305745 -2.24106,-1.68973 -0.58908,-0.201779 -0.58908,-0.201779 -36.668792,-0.201779 -36.079677,0 -36.079677,0 -36.668752,0.201779 -1.120894,0.383985 -1.871345,0.949806 -2.241085,1.68973 -0.225588,0.451418 -0.225588,0.451418 -0.225588,3.569011 v 3.117593 h 39.135425 39.135442 z"
         id="path17483" />
    </g>
  </g>
</svg>
